<?xml version="1.0" encoding="UTF-8"?>
<svg width="68px" height="60px" viewBox="0 0 68 60" version="1.1" xmlns="http://www.w3.org/2000/svg" xmlns:xlink="http://www.w3.org/1999/xlink">
    <title>bath</title>
    <g id="bath" stroke="none" stroke-width="1" fill="none" fill-rule="evenodd">
        <path d="M66.9135802,41.7283951 L66.9135802,46.9211049 C66.9135802,54.1339213 61.0652585,60 53.8742756,60 L53.8742756,60 L13.0393047,60 C5.84832179,60 -1.0658141e-13,54.1339213 -1.0658141e-13,46.9211049 L-1.0658141e-13,46.9211049 L-1.0658141e-13,41.7283951 L66.9135802,41.7283951 Z M67.1604938,39.0123457 L67.1604938,40.4938272 L0.24691358,40.4938272 L0.24691358,39.0123457 L67.1604938,39.0123457 Z M9.93685342,0 C14.0669085,0 16.9631421,2.12708358 17.5345963,5.38861172 C21.0282592,5.94294259 23.7037037,8.94664243 23.7037037,12.5691302 L23.7037037,12.5691302 L23.7037037,13.8582718 L9.0147342,13.8582718 L9.0147342,12.5691302 C9.0147342,9.04977376 11.5603027,6.09763958 14.9111022,5.42728597 C14.1967845,2.8103286 11.0148238,2.57828312 9.94984101,2.57828312 L9.86538837,2.5787378 C8.57018006,2.59258145 4.83272874,2.94439932 4.83272874,6.57462196 L4.83272874,6.57462196 L5.04053025,37.037037 L2.44301133,37.037037 L2.22222222,6.58751337 C2.22222222,2.6427402 5.32625733,0 9.93685342,0 Z M17.7777778,23.2098765 L17.7777778,26.4197531 L15.308642,26.4197531 L15.308642,23.2098765 L17.7777778,23.2098765 Z M15.5555556,19.2592593 L15.5555556,22.4691358 L13.0864198,22.4691358 L13.0864198,19.2592593 L15.5555556,19.2592593 Z M19.7530864,19.2592593 L19.7530864,22.4691358 L17.2839506,22.4691358 L17.2839506,19.2592593 L19.7530864,19.2592593 Z M13.5802469,14.5679012 L13.5802469,17.7777778 L11.1111111,17.7777778 L11.1111111,14.5679012 L13.5802469,14.5679012 Z M17.7777778,14.5679012 L17.7777778,17.7777778 L15.308642,17.7777778 L15.308642,14.5679012 L17.7777778,14.5679012 Z M21.9753086,14.5679012 L21.9753086,17.7777778 L19.5061728,17.7777778 L19.5061728,14.5679012 L21.9753086,14.5679012 Z M16.3527252,7.86376352 C14.1967845,7.86376352 12.3655336,9.30760207 11.7940794,11.2799887 L11.7940794,11.2799887 L20.9113709,11.2799887 C20.3529043,9.30760207 18.5086659,7.86376352 16.3527252,7.86376352 Z" fill="#000000" fill-rule="nonzero"></path>
    </g>
</svg>