<?xml version="1.0" encoding="UTF-8"?>
<svg width="66px" height="60px" viewBox="0 0 66 60" version="1.1" xmlns="http://www.w3.org/2000/svg" xmlns:xlink="http://www.w3.org/1999/xlink">
    <title>bed</title>
    <g id="bed" stroke="none" stroke-width="1" fill="none" fill-rule="evenodd">
        <path d="M61.924956,33.4396181 L58.4651629,22.314228 L58.4651629,6.21744079 C58.4651629,2.7890582 55.6713766,0 52.2371822,0 L13.8210768,0 C10.3868823,0 7.59309611,2.78949881 7.59309611,6.21744079 L7.59309611,22.2926381 L4.13109623,33.425078 C1.76939795,33.9630622 0,36.0727006 0,38.5912245 L0,52.319295 C0,53.1709932 0.691605533,53.8614283 1.54474752,53.8614283 L3.76653582,53.8614283 L3.76653582,58.4578667 C3.76653582,59.3095649 4.45814135,60 5.31128334,60 L11.4598198,60 C12.3129618,60 13.0045674,59.3095649 13.0045674,58.4578667 L13.0045674,53.8614283 L52.9949912,53.8614283 L52.9949912,58.4578667 C52.9949912,59.3095649 53.6865967,60 54.5397387,60 L60.6887166,60 C61.5418586,60 62.2334641,59.3095649 62.2334641,58.4578667 L62.2334641,53.8614283 L64.4552524,53.8614283 C65.3083944,53.8614283 66,53.1709932 66,52.319295 L66,38.5912245 C66,36.092528 64.2584074,33.9978704 61.924956,33.4396181 Z M10.2756605,24.0687351 L14.5404877,24.0687351 C15.6778633,25.3059666 17.3051445,26.0876079 19.1160299,26.0876079 L25.5571857,26.0876079 C27.3680712,26.0876079 28.9953523,25.3059666 30.1327279,24.0687351 L33.0002206,24.0687351 L33.051418,24.0687351 L35.8677134,24.0687351 C37.0055303,25.3059666 38.6328115,26.0876079 40.4436969,26.0876079 L46.8844114,26.0876079 C48.6952968,26.0876079 50.322578,25.3059666 51.4603949,24.0687351 L55.7759781,24.0687351 L58.6430295,33.2884891 L7.40860912,33.2884891 L10.2756605,24.0687351 Z M15.1040999,19.8785386 C15.1040999,17.6702038 16.9039515,15.8733982 19.1160299,15.8733982 L25.5571857,15.8733982 C27.7692642,15.8733982 29.5691157,17.6702038 29.5691157,19.8785386 C29.5691157,22.0873141 27.7692642,23.8841197 25.5571857,23.8841197 L19.1160299,23.8841197 C16.9039515,23.8841197 15.1040999,22.0873141 15.1040999,19.8785386 Z M36.4308842,19.8785386 C36.4308842,17.6702038 38.2307357,15.8733982 40.4432556,15.8733982 L46.88397,15.8733982 C49.0964898,15.8733982 50.8963414,17.6702038 50.8963414,19.8785386 C50.8963414,22.0873141 49.0964898,23.8841197 46.88397,23.8841197 L40.4432556,23.8841197 C38.2307357,23.8841197 36.4308842,22.0873141 36.4308842,19.8785386 Z M10.6825911,6.21744079 C10.6825911,4.48981091 12.0905182,3.08426657 13.8210768,3.08426657 L52.2371822,3.08426657 C53.9677408,3.08426657 55.3756678,4.48981091 55.3756678,6.21744079 L55.3756678,20.9844685 L52.9989634,20.9844685 C53.0642842,20.6249312 53.1035649,20.2565816 53.1035649,19.8785386 C53.1035649,16.4550028 50.3137509,13.6703507 46.8844114,13.6703507 L40.4432556,13.6703507 C37.0139161,13.6703507 34.224102,16.4554434 34.224102,19.8785386 C34.224102,20.2565816 34.2633828,20.6249312 34.3287035,20.9844685 L33.0509766,20.9844685 L33.0002206,20.9844685 L31.6717378,20.9844685 C31.7370585,20.6249312 31.7763392,20.2565816 31.7763392,19.8785386 C31.7763392,16.4550028 28.9865252,13.6703507 25.5576271,13.6703507 L19.1160299,13.6703507 C15.6866904,13.6703507 12.8973177,16.4554434 12.8973177,19.8785386 C12.8973177,20.2565816 12.9365985,20.6249312 13.0019192,20.9844685 L10.6825911,20.9844685 L10.6825911,6.21744079 Z M9.91551367,56.9152928 L6.85647222,56.9152928 L6.85647222,53.8609877 L9.91551367,53.8609877 L9.91551367,56.9152928 Z M59.1444104,56.9152928 L56.0849276,56.9152928 L56.0849276,53.8609877 L59.1444104,53.8609877 L59.1444104,56.9152928 Z M62.9109462,50.7771617 L60.6891579,50.7771617 L54.5401801,50.7771617 L11.4602612,50.7771617 L5.31128334,50.7771617 L3.08949504,50.7771617 L3.08949504,38.5912245 C3.08949504,37.3689737 4.08519516,36.3745181 5.30907656,36.3731963 C5.30995927,36.3731963 5.31084198,36.3731963 5.31172469,36.3731963 C5.31349012,36.3731963 5.31525555,36.3727556 5.31702097,36.3727556 L60.6887166,36.3727556 C61.913922,36.3727556 62.9109462,37.3680925 62.9109462,38.5907839 L62.9109462,50.7771617 L62.9109462,50.7771617 Z" fill="#000000" fill-rule="nonzero"></path>
    </g>
</svg>