<?xml version="1.0" encoding="UTF-8"?>
<svg width="61px" height="60px" viewBox="0 0 61 60" version="1.1" xmlns="http://www.w3.org/2000/svg" xmlns:xlink="http://www.w3.org/1999/xlink">
    <title>clock</title>
    <g id="clock" stroke="none" stroke-width="1" fill="none" fill-rule="evenodd">
        <path d="M56.052155,14.8424484 C56.3274176,15.1104672 56.6896052,15.262586 57.0735241,15.262586 C57.457443,15.262586 57.8268743,15.1104672 58.1021369,14.8424484 C61.492213,11.4523723 61.492213,5.93987686 58.1021369,2.5498008 C56.4578051,0.905469033 54.2774357,0 51.9521912,0 C49.6341905,0 47.4538211,0.905469033 45.8094893,2.5498008 C45.2444766,3.11481347 45.2444766,4.02752626 45.8094893,4.59253894 L49.9094531,8.69250272 L48.2216588,10.3730532 C43.4770011,6.10648316 37.1966679,3.49873234 30.322347,3.49873234 C23.4480261,3.49873234 17.1676929,6.10648316 12.4230351,10.3730532 L10.7352409,8.69250272 L14.8352046,4.59253894 C15.4002173,4.02752626 15.4002173,3.11481347 14.8352046,2.5498008 C11.4451286,-0.840275263 5.9326331,-0.840275263 2.54255704,2.5498008 C-0.847519015,5.93987686 -0.847519015,11.4523723 2.54255704,14.8424484 C2.82506338,15.1249547 3.19449475,15.262586 3.56392611,15.262586 C3.94060123,15.262586 4.3100326,15.1249547 4.59253894,14.8424484 L8.69250272,10.7424846 L10.3730532,12.4230351 C6.11372691,17.1749366 3.5204636,23.4407823 3.5204636,30.3006157 C3.5204636,40.702644 9.48207171,49.735603 18.1600869,54.1760232 L14.8134734,57.5298805 C14.241217,58.0948932 14.241217,59.0076059 14.8134734,59.5726186 C15.0959797,59.855125 15.4654111,60 15.8348424,60 C16.2042738,60 16.5737052,59.855125 16.8562115,59.5726186 L21.0068816,55.4291923 C23.9116262,56.5085114 27.048171,57.1024991 30.322347,57.1024991 C33.596523,57.1024991 36.7330677,56.5085114 39.6378124,55.4291923 L43.7884824,59.5726186 C44.0709888,59.855125 44.4404201,60 44.8098515,60 C45.1792829,60 45.5487142,59.855125 45.8312206,59.5726186 C46.403477,59.0076059 46.403477,58.0948932 45.8312206,57.5298805 L42.484607,54.1760232 C51.1626222,49.735603 57.1242304,40.702644 57.1242304,30.3006157 C57.1242304,23.4407823 54.530967,17.1749366 50.2716407,12.4230351 L51.9521912,10.7424846 L56.052155,14.8424484 Z M3.69431365,11.6407099 C2.39043825,9.41687794 2.68743209,6.50488953 4.59253894,4.59253894 C5.68634553,3.49873234 7.14233973,2.89750091 8.69250272,2.89750091 C9.74284679,2.89750091 10.7497284,3.18000724 11.6334661,3.70155741 L3.69431365,11.6407099 Z M54.2267294,30.3006157 C54.2267294,43.4842448 43.5059761,54.2049982 30.322347,54.2049982 C17.1387179,54.2049982 6.41796451,43.4842448 6.41796451,30.3006157 C6.41796451,17.1169866 17.1387179,6.39623325 30.322347,6.39623325 C43.5059761,6.39623325 54.2267294,17.1169866 54.2267294,30.3006157 Z M49.0112278,3.70155741 C49.8949656,3.18000724 50.9018472,2.89750091 51.9521912,2.89750091 C53.5023542,2.89750091 54.9583484,3.49873234 56.052155,4.59253894 C57.9572619,6.50488953 58.2542557,9.41687794 56.9503803,11.6407099 L49.0112278,3.70155741 Z M45.1792829,15.4436798 C45.1430641,15.4147048 45.1140891,15.3929736 45.0778703,15.3639986 C41.2821442,11.6117349 36.0666425,9.29373415 30.322347,9.29373415 C24.5780514,9.29373415 19.3625498,11.6117349 15.5668236,15.3639986 C15.5306049,15.3929736 15.5016298,15.4147048 15.4654111,15.4436798 C15.4364361,15.4798986 15.4147048,15.5088736 15.3857298,15.5450924 C11.6334661,19.3408185 9.31546541,24.5563202 9.31546541,30.3006157 C9.31546541,36.0449113 11.6334661,41.2604129 15.3857298,45.0561391 C15.4147048,45.0923578 15.4364361,45.1213329 15.4654111,45.1575516 C15.5016298,45.1865266 15.5306049,45.2082579 15.5668236,45.2372329 C19.3625498,48.9894966 24.5780514,51.3074973 30.322347,51.3074973 C36.0666425,51.3074973 41.2821442,48.9894966 45.0778703,45.2372329 C45.1068453,45.2082579 45.1430641,45.1865266 45.1792829,45.1575516 C45.2082579,45.1213329 45.2299891,45.0851141 45.2589641,45.0561391 C49.0112278,41.2604129 51.3292285,36.0449113 51.3292285,30.3006157 C51.3292285,24.5563202 49.0112278,19.3408185 45.2589641,15.5450924 C45.2299891,15.5088736 45.2082579,15.4798986 45.1792829,15.4436798 Z M46.9829772,31.7493662 L48.3665339,31.7493662 C48.0550525,35.6537486 46.5048895,39.210431 44.0999638,42.0282506 L43.129301,41.0575878 C42.5642883,40.4925752 41.6443318,40.4925752 41.0793191,41.0575878 C40.5143064,41.6226005 40.5143064,42.542557 41.0793191,43.1075697 L42.0499819,44.0782325 C39.2321623,46.4831583 35.6754799,48.0333213 31.7710974,48.3448026 L31.7710974,46.9612459 C31.7710974,46.1644332 31.1191597,45.5124955 30.322347,45.5124955 C29.5255342,45.5124955 28.8735965,46.1644332 28.8735965,46.9612459 L28.8735965,48.3448026 C24.9692141,48.0333213 21.4125317,46.4831583 18.5947121,44.0782325 L19.5653749,43.1075697 C20.1303875,42.542557 20.1303875,41.6226005 19.5653749,41.0575878 C19.0003622,40.4925752 18.0804057,40.4925752 17.515393,41.0575878 L16.5447302,42.0282506 C14.1398044,39.210431 12.5896414,35.6537486 12.2781601,31.7493662 L13.6617168,31.7493662 C14.4585295,31.7493662 15.1104672,31.0974285 15.1104672,30.3006157 C15.1104672,29.503803 14.4585295,28.8518653 13.6617168,28.8518653 L12.2781601,28.8518653 C12.5896414,24.9474828 14.1398044,21.3908004 16.5447302,18.5729808 L17.515393,19.5436436 C17.7978993,19.8261499 18.1673307,19.971025 18.5440058,19.971025 C18.9134372,19.971025 19.2828685,19.8261499 19.5653749,19.5436436 C20.1303875,18.9786309 20.1303875,18.0586744 19.5653749,17.4936617 L18.5947121,16.5229989 C21.4125317,14.1180732 24.9692141,12.5679102 28.8735965,12.2564288 L28.8735965,13.6399855 C28.8735965,14.4367983 29.5255342,15.088736 30.322347,15.088736 C31.1191597,15.088736 31.7710974,14.4367983 31.7710974,13.6399855 L31.7710974,12.2564288 C35.6754799,12.5679102 39.2321623,14.1180732 42.0499819,16.5229989 L41.0793191,17.4936617 C40.5143064,18.0586744 40.5143064,18.9786309 41.0793191,19.5436436 C41.3618254,19.8261499 41.7312568,19.971025 42.1006882,19.971025 C42.4773633,19.971025 42.8467946,19.8261499 43.129301,19.5436436 L44.0999638,18.5729808 C46.5048895,21.3908004 48.0550525,24.9474828 48.3665339,28.8518653 L46.9829772,28.8518653 C46.1861644,28.8518653 45.5342267,29.503803 45.5342267,30.3006157 C45.5342267,31.0974285 46.1861644,31.7493662 46.9829772,31.7493662 Z M39.7392249,28.8518653 L35.1829047,28.8518653 C34.6903296,27.222021 33.4009417,25.9326331 31.7710974,25.440058 L31.7710974,19.4349873 C31.7710974,18.6381746 31.1191597,17.9862369 30.322347,17.9862369 C29.5255342,17.9862369 28.8735965,18.6381746 28.8735965,19.4349873 L28.8735965,25.440058 C26.7801521,26.0702644 25.2517204,28.01159 25.2517204,30.3006157 C25.2517204,33.0967041 27.5262586,35.3712423 30.322347,35.3712423 C32.6113727,35.3712423 34.5526983,33.8428106 35.1829047,31.7493662 L39.7392249,31.7493662 C40.5360377,31.7493662 41.1879754,31.0974285 41.1879754,30.3006157 C41.1879754,29.503803 40.5360377,28.8518653 39.7392249,28.8518653 Z M30.322347,32.4737414 C29.1271279,32.4737414 28.1492213,31.4958348 28.1492213,30.3006157 C28.1492213,29.1053966 29.1271279,28.12749 30.322347,28.12749 C31.5175661,28.12749 32.4954727,29.1053966 32.4954727,30.3006157 C32.4954727,31.4958348 31.5175661,32.4737414 30.322347,32.4737414 Z" fill="#000000" fill-rule="nonzero"></path>
    </g>
</svg>