<?xml version="1.0" encoding="UTF-8"?>
<svg width="56px" height="60px" viewBox="0 0 56 60" version="1.1" xmlns="http://www.w3.org/2000/svg" xmlns:xlink="http://www.w3.org/1999/xlink">
    <title>coffee maker</title>
    <g id="coffee-maker" stroke="none" stroke-width="1" fill="none" fill-rule="evenodd">
        <path d="M47.1428571,0 C49.5097918,0 51.4285714,1.91877964 51.4285714,4.28571429 L51.4285714,4.28571429 L51.4285714,7.5 C51.4285714,11.6421356 48.0707071,15 43.9285714,15 L43.9285714,15 L38.5714286,15 L38.5714286,17.1428571 C38.5714286,18.3263245 37.6120387,19.2857143 36.4285714,19.2857143 C35.2451041,19.2857143 34.2857143,18.3263245 34.2857143,17.1428571 L34.2857143,17.1428571 L34.2857143,15 L23.5714286,15 C22.3879613,15 21.4285714,15.9593898 21.4285714,17.1428571 L21.4285714,17.1428571 L21.4285714,42.8571429 C21.4285714,44.0406102 22.3879613,45 23.5714286,45 L23.5714286,45 L27.6,45 L25.9714286,30.4714286 C25.8368468,29.2555884 26.228233,28.040184 27.0470071,27.1313448 C27.8657811,26.2225057 29.0338995,25.7068599 30.2571429,25.7142857 L30.2571429,25.7142857 L44.7428571,25.7142857 C46.2724251,25.7158546 47.6852164,26.532497 48.45,27.8571429 L48.45,27.8571429 L49.2857143,27.8571429 C52.8361162,27.8571429 55.7142857,30.7353123 55.7142857,34.2857143 L55.7142857,34.2857143 L55.7142857,36.4285714 C55.7142857,39.9789734 52.8361162,42.8571429 49.2857143,42.8571429 L49.2857143,42.8571429 L47.6357143,42.8571429 L47.4,45 L48.2142857,45 C52.3564213,45 55.7142857,48.3578644 55.7142857,52.5 L55.7142857,52.5 L55.7142857,55.7142857 C55.7142857,58.0812204 53.7955061,60 51.4285714,60 L51.4285714,60 L6.42857143,60 C2.87816947,60 3.19744231e-14,57.1218305 3.19744231e-14,53.5714286 L3.19744231e-14,53.5714286 L3.19744231e-14,10.7142857 C3.19744231e-14,4.79694911 4.79694911,0 10.7142857,0 L10.7142857,0 Z M48.2142857,49.2857143 L4.28571429,49.2857143 L4.28571429,53.5714286 C4.28571429,54.7548959 5.24510411,55.7142857 6.42857143,55.7142857 L6.42857143,55.7142857 L51.4285714,55.7142857 L51.4285714,52.5 C51.4285714,50.724799 49.9894867,49.2857143 48.2142857,49.2857143 L48.2142857,49.2857143 Z M47.1428571,4.28571429 L10.7142857,4.28571429 C7.16388375,4.28571429 4.28571429,7.16388375 4.28571429,10.7142857 L4.28571429,10.7142857 L4.28571429,45 L17.5285714,45 C17.2790945,44.3128414 17.1486526,43.5881641 17.1428571,42.8571429 L17.1428571,42.8571429 L17.1428571,17.1428571 C17.1428571,13.5924552 20.0210266,10.7142857 23.5714286,10.7142857 L23.5714286,10.7142857 L43.9285714,10.7142857 C45.7037724,10.7142857 47.1428571,9.27520098 47.1428571,7.5 L47.1428571,7.5 L47.1428571,4.28571429 Z M44.7642857,30 L30.2571429,30 L31.9285714,45 L43.0928571,45 L44.7642857,30 Z M49.2857143,32.1428571 L49.2857143,38.5714286 C50.4691816,38.5714286 51.4285714,37.6120387 51.4285714,36.4285714 L51.4285714,36.4285714 L51.4285714,34.2857143 C51.4285714,33.102247 50.4691816,32.1428571 49.2857143,32.1428571 L49.2857143,32.1428571 Z M10.7142857,32.1428571 L10.8673198,32.1482375 C11.9793646,32.2267059 12.8571429,33.1537021 12.8571429,34.2857143 C12.8571429,35.4691816 11.897753,36.4285714 10.7142857,36.4285714 C9.53081839,36.4285714 8.57142857,35.4691816 8.57142857,34.2857143 C8.57142857,33.102247 9.53081839,32.1428571 10.7142857,32.1428571 L10.7142857,32.1428571 Z M10.7142857,23.5714286 L10.8673198,23.5768089 C11.9793646,23.6552774 12.8571429,24.5822735 12.8571429,25.7142857 C12.8571429,26.897753 11.897753,27.8571429 10.7142857,27.8571429 C9.53081839,27.8571429 8.57142857,26.897753 8.57142857,25.7142857 C8.57142857,24.5308184 9.53081839,23.5714286 10.7142857,23.5714286 L10.7142857,23.5714286 Z M10.7142857,15 L10.8673198,15.0053803 C11.9793646,15.0838488 12.8571429,16.0108449 12.8571429,17.1428571 C12.8571429,18.3263245 11.897753,19.2857143 10.7142857,19.2857143 C9.53081839,19.2857143 8.57142857,18.3263245 8.57142857,17.1428571 C8.57142857,15.9593898 9.53081839,15 10.7142857,15 L10.7142857,15 Z" fill="#000000" fill-rule="nonzero"></path>
    </g>
</svg>