<?xml version="1.0" encoding="UTF-8"?>
<svg width="35px" height="60px" viewBox="0 0 35 60" version="1.1" xmlns="http://www.w3.org/2000/svg" xmlns:xlink="http://www.w3.org/1999/xlink">
    <title>mirror</title>
    <g id="mirror" stroke="none" stroke-width="1" fill="none" fill-rule="evenodd">
        <path d="M29.9990625,0 C30.6912891,0 31.2515625,0.559335937 31.2515625,1.2496875 L31.2515625,1.2496875 L31.2515625,22.5 L32.5003125,22.5 L32.5003125,12.4996875 C32.5003125,11.8093359 33.0605859,11.25 33.7490625,11.25 C34.4412891,11.25 35.0015625,11.8093359 35.0015625,12.4996875 L35.0015625,12.4996875 L35.0015625,58.75125 C35.0015625,59.4397266 34.4411719,60 33.7490625,60 C33.0605859,60 32.5003125,59.4397266 32.5003125,58.75125 L32.5003125,58.75125 L32.5003125,57.49875 L2.5003125,57.49875 L2.5003125,58.75125 C2.5003125,59.4397266 1.94097656,60 1.250625,60 C0.560273438,60 4.97379915e-14,59.4397266 4.97379915e-14,58.75125 L4.97379915e-14,58.75125 L4.97379915e-14,12.4996875 C4.97379915e-14,11.8093359 0.560273438,11.25 1.250625,11.25 C1.94097656,11.25 2.5003125,11.8093359 2.5003125,12.4996875 L2.5003125,12.4996875 L2.5003125,22.5 L3.7509375,22.5 L3.7509375,1.2496875 C3.7509375,0.559335937 4.31121094,0 4.9996875,0 L4.9996875,0 Z M3.7509375,25.0003125 L2.5003125,25.0003125 L2.5003125,55.00125 L32.5003125,55.00125 L32.5003125,25.0003125 L31.2515625,25.0003125 L31.2515625,52.5 C31.2515625,53.1902344 30.6911719,53.74875 29.9990625,53.74875 L29.9990625,53.74875 L4.9996875,53.74875 C4.31121094,53.74875 3.7509375,53.1903516 3.7509375,52.5 L3.7509375,52.5 L3.7509375,25.0003125 Z M28.7503125,2.5003125 L6.2503125,2.5003125 L6.2503125,51.25125 L28.7503125,51.25125 L28.7503125,2.5003125 Z M24.1140234,19.1162109 C24.6048047,18.6282422 25.3958203,18.6282422 25.8828516,19.1162109 C26.3717578,19.6041797 26.3717578,20.3951953 25.8828516,20.8841016 L25.8828516,20.8841016 L10.8847266,35.8850391 C10.6412109,36.1266797 10.3208203,36.25125 10.0021875,36.25125 C9.68167969,36.25125 9.36128906,36.1266797 9.11765625,35.8850391 C8.62875,35.3961328 8.62875,34.6032422 9.11765625,34.1162109 L9.11765625,34.1162109 Z M22.8983203,27.8658984 C23.3871094,27.3779297 24.1801172,27.3779297 24.6671484,27.8658984 C25.1541797,28.3538672 25.1541797,29.1448828 24.6671484,29.6337891 L24.6671484,29.6337891 L19.6683984,34.6325391 C19.4230078,34.8779297 19.1026172,34.99875 18.7839844,34.99875 C18.4635938,34.99875 18.1430859,34.8779297 17.8995703,34.6325391 C17.4106641,34.1455078 17.4106641,33.3544922 17.8995703,32.8655859 L17.8995703,32.8655859 Z M15.4001953,20.3668359 C15.8872266,19.8788672 16.6782422,19.8788672 17.1671484,20.3668359 C17.6560547,20.8548047 17.6560547,21.6467578 17.1671484,22.1347266 L17.1671484,22.1347266 L12.1701563,27.1334766 C11.9247656,27.3779297 11.6061328,27.4996875 11.2838672,27.4996875 C10.9652344,27.4996875 10.6448438,27.3779297 10.4014453,27.1334766 C9.91441406,26.6455078 9.91253906,25.8544922 10.4014453,25.3655859 L10.4014453,25.3655859 Z" fill="#000000" fill-rule="nonzero"></path>
    </g>
</svg>