<?xml version="1.0" encoding="UTF-8"?>
<svg width="60px" height="60px" viewBox="0 0 60 60" version="1.1" xmlns="http://www.w3.org/2000/svg" xmlns:xlink="http://www.w3.org/1999/xlink">
    <title>sofa-bed</title>
    <g id="sofa-bed" stroke="none" stroke-width="1" fill="none" fill-rule="evenodd">
        <path d="M47.776,0 C52.504,0 56.348,3.208 56.348,7.152 L56.348,7.152 L56.348,11.988 C58.36,12.592 59.832,14.46 59.832,16.668 L59.832,16.668 L59.832,31.62 C59.832,33.728 58.46,35.516 56.564,36.148 L56.564,36.148 L59.776,46.84 C59.78,46.856 59.78,46.872 59.784,46.888 C59.8,46.952 59.808,47.016 59.816,47.084 C59.82,47.12 59.828,47.16 59.828,47.196 C59.828,47.212 59.832,47.224 59.832,47.24 L59.832,47.24 L59.832,53.428 C59.832,54.2 59.208,54.828 58.432,54.828 L58.432,54.828 L55.384,54.828 L55.384,56.576 C55.384,58.464 53.848,60 51.96,60 L51.96,60 L51.088,60 C49.2,60 47.664,58.464 47.664,56.576 L47.664,56.576 L47.664,54.828 L12.356,54.828 L12.356,56.576 C12.356,58.464 10.824,60 8.936,60 L8.936,60 L8.06,60 C6.176,60 4.64,58.464 4.64,56.576 L4.64,56.576 L4.64,54.828 L1.4,54.828 C0.624,54.828 -9.23705556e-14,54.2 -9.23705556e-14,53.428 L-9.23705556e-14,53.428 L-9.23705556e-14,47.24 C-9.23705556e-14,47.224 0.004,47.212 0.004,47.196 C0.004,47.16 0.012,47.12 0.016,47.084 C0.024,47.016 0.032,46.952 0.048,46.888 C0.052,46.872 0.052,46.856 0.056,46.84 L0.056,46.84 L3.268,36.148 C1.372,35.516 -9.23705556e-14,33.728 -9.23705556e-14,31.62 L-9.23705556e-14,31.62 L-9.23705556e-14,16.668 C-9.23705556e-14,14.46 1.472,12.592 3.484,11.988 L3.484,11.988 L3.484,7.152 C3.484,3.208 7.328,0 12.056,0 L12.056,0 Z M9.556,54.828 L7.44,54.828 L7.44,56.576 C7.44,56.92 7.716,57.2 8.06,57.2 L8.06,57.2 L8.936,57.2 C9.28,57.2 9.556,56.92 9.556,56.576 L9.556,56.576 L9.556,54.828 Z M52.584,54.828 L50.464,54.828 L50.464,56.576 C50.464,56.92 50.744,57.2 51.088,57.2 L51.088,57.2 L51.96,57.2 C52.304,57.2 52.584,56.92 52.584,56.576 L52.584,56.576 L52.584,54.828 Z M57.032,48.64 L2.8,48.64 L2.8,52.028 L57.032,52.028 L57.032,48.64 Z M13.436,25.428 L9.412,25.428 L3.28,45.84 L56.552,45.84 L50.42,25.428 L46.396,25.428 C45.38,26.4 44.012,27.004 42.5,27.004 L42.5,27.004 L36.66,27.004 C35.152,27.004 33.78,26.4 32.764,25.428 L32.764,25.428 L27.068,25.428 C26.052,26.4 24.68,27.004 23.172,27.004 L23.172,27.004 L17.332,27.004 C15.82,27.004 14.452,26.4 13.436,25.428 L13.436,25.428 Z M4.884,14.584 C3.732,14.584 2.8,15.516 2.8,16.668 L2.8,16.668 L2.8,31.62 C2.8,32.464 3.332,33.18 4.076,33.46 L4.076,33.46 L6.968,23.824 L6.968,16.668 C6.968,16.092 6.732,15.572 6.356,15.192 C5.98,14.816 5.46,14.584 4.884,14.584 Z M54.948,14.584 C53.8,14.584 52.864,15.516 52.864,16.668 L52.864,16.668 L52.864,23.824 L55.756,33.46 C56.5,33.18 57.032,32.464 57.032,31.62 L57.032,31.62 L57.032,16.668 C57.032,16.092 56.8,15.572 56.42,15.192 C56.044,14.816 55.524,14.584 54.948,14.584 Z M23.172,17.728 L17.332,17.728 C15.328,17.728 13.696,19.36 13.696,21.368 C13.696,23.372 15.328,25.004 17.332,25.004 L17.332,25.004 L23.172,25.004 C25.176,25.004 26.808,23.372 26.808,21.368 C26.808,19.36 25.176,17.728 23.172,17.728 L23.172,17.728 Z M42.5,17.728 L36.66,17.728 C34.656,17.728 33.024,19.36 33.024,21.368 C33.024,23.372 34.656,25.004 36.66,25.004 L36.66,25.004 L42.5,25.004 C44.504,25.004 46.136,23.372 46.136,21.368 C46.136,19.36 44.504,17.728 42.5,17.728 L42.5,17.728 Z M47.776,2.8 L12.056,2.8 C8.872,2.8 6.284,4.752 6.284,7.152 L6.284,7.152 L6.284,11.988 C8.296,12.592 9.768,14.46 9.768,16.668 L9.768,16.668 L9.768,22.628 L11.844,22.628 C11.752,22.224 11.696,21.8 11.696,21.368 C11.696,18.26 14.224,15.728 17.332,15.728 L17.332,15.728 L23.172,15.728 C26.28,15.728 28.808,18.26 28.808,21.368 C28.808,21.8 28.752,22.224 28.66,22.628 L28.66,22.628 L31.172,22.628 C31.08,22.224 31.024,21.8 31.024,21.368 C31.024,18.26 33.552,15.728 36.66,15.728 L36.66,15.728 L42.5,15.728 C45.608,15.728 48.136,18.26 48.136,21.368 C48.136,21.8 48.08,22.224 47.988,22.628 L47.988,22.628 L50.064,22.628 L50.064,16.668 C50.064,14.46 51.536,12.592 53.548,11.988 L53.548,11.988 L53.548,7.152 C53.548,4.752 50.96,2.8 47.776,2.8 L47.776,2.8 Z M41.446,9.0628 C42.1168,9.0628 42.6624,9.6084 42.6624,10.2796 C42.6624,10.9508 42.1168,11.4964 41.446,11.4964 C40.7752,11.4964 40.2292,10.9508 40.2292,10.2796 C40.2292,9.6084 40.7748,9.0628 41.446,9.0628 Z M29.9108,9.0628 C30.582,9.0628 31.1276,9.6084 31.1276,10.2796 C31.1276,10.9508 30.582,11.4964 29.9108,11.4964 C29.24,11.4964 28.6944,10.9508 28.6944,10.2796 C28.6944,9.6084 29.24,9.0628 29.9108,9.0628 Z M18.3856,9.0628 C19.0568,9.0628 19.6024,9.6084 19.6024,10.2796 C19.6024,10.9508 19.0568,11.4964 18.3856,11.4964 C17.7148,11.4964 17.1692,10.9508 17.1692,10.2796 C17.1692,9.6084 17.7148,9.0628 18.3856,9.0628 Z" fill="#000000" fill-rule="nonzero"></path>
    </g>
</svg>