<?xml version="1.0" encoding="UTF-8"?>
<svg width="73px" height="60px" viewBox="0 0 73 60" version="1.1" xmlns="http://www.w3.org/2000/svg" xmlns:xlink="http://www.w3.org/1999/xlink">
    <title>wi-fi</title>
    <g id="wi-fi" stroke="none" stroke-width="1" fill="none" fill-rule="evenodd">
        <path d="M36.4285714,42.8571429 C41.1624407,42.8571429 45,46.6947021 45,51.4285714 C45,56.1624407 41.1624407,60 36.4285714,60 C31.6947021,60 27.8571429,56.1624407 27.8571429,51.4285714 C27.8571429,46.6947021 31.6947021,42.8571429 36.4285714,42.8571429 Z M36.4285714,21.4285714 C44.4814286,21.4285714 52.038,24.5511429 57.7054286,30.2194286 L57.7054286,30.2194286 L50.1282857,37.7948571 C46.4845714,34.1502857 41.6194286,32.1428571 36.4285714,32.1428571 C31.2377143,32.1428571 26.3725714,34.1502857 22.7288571,37.7948571 L22.7288571,37.7948571 L15.1517143,30.2194286 C20.8191429,24.5511429 28.3757143,21.4285714 36.4285714,21.4285714 Z M36.4285714,-2.48689958e-14 C49.6217143,-2.48689958e-14 62.814,5.02285714 72.8571429,15.066 L72.8571429,15.066 L65.2808571,22.6422857 C57.5897143,14.9502857 47.3425714,10.7142857 36.4285714,10.7142857 C25.5145714,10.7142857 15.2682857,14.9502857 7.57628571,22.6422857 L7.57628571,22.6422857 L3.55271368e-14,15.066 C10.0431429,5.02285714 23.2354286,-2.48689958e-14 36.4285714,-2.48689958e-14 Z" fill="#000000" fill-rule="nonzero"></path>
    </g>
</svg>